<svg width="20" height="20" viewBox="0 0 20 20" fill="none" xmlns="http://www.w3.org/2000/svg">
<path d="M9.75326 18.645C10.9564 18.6451 12.1474 18.4039 13.2557 17.9358C14.364 17.4676 15.3673 16.782 16.206 15.9194C17.0448 15.0569 17.7022 14.0349 18.1392 12.9139C18.5762 11.7929 18.784 10.5957 18.7503 9.39301C17.4916 10.2691 15.9801 10.7076 14.448 10.6411C12.9159 10.5747 11.448 10.0069 10.2699 9.02512C9.09183 8.04334 8.26876 6.70185 7.92719 5.20683C7.58562 3.71182 7.74445 2.14599 8.37926 0.750015C6.13749 1.09548 4.10882 2.27468 2.69916 4.05168C1.28949 5.82869 0.602782 8.07244 0.776429 10.334C0.950076 12.5956 1.97127 14.7082 3.6357 16.2492C5.30012 17.7902 7.48502 18.6458 9.75326 18.645Z" stroke="#001C33" stroke-width="1.5" stroke-linecap="round" stroke-linejoin="round"/>
</svg>
