<svg width="194" height="45" viewBox="0 0 194 45" fill="none" xmlns="http://www.w3.org/2000/svg">
<g clip-path="url(#clip0_154_81)">
<path d="M190.616 27.4621C188.71 36.6827 180.347 43.8502 170.979 44.8532C148.887 47.2192 136.658 20.1173 153.55 5.47747C167.016 -6.19504 188.436 1.89786 191.048 19.2252C191.79 19.408 193.799 18.8317 193.997 19.7793C194.114 20.3306 190.167 24.9547 189.719 25.8136C189.395 26.0851 188.866 26.0159 188.612 25.6862L184.353 20.1976C184.116 19.9621 184.406 19.2446 184.623 19.2446H187.034C184.481 5.54119 168.379 -0.689873 157.009 7.68286C145.887 15.8727 147.554 33.0809 159.936 39.1263C170.542 44.3046 183.511 38.7856 186.622 27.4594H190.619L190.616 27.4621Z" fill="#1F456B"/>
<path d="M161.82 18.0116H164.643L164.83 18.3303C163.863 20.4331 164.688 23.0458 166.687 24.1984C170.921 26.6393 175.472 22.5887 173.669 18.1502H176.768C176.855 18.1502 177.398 18.5741 177.454 18.6987C177.58 18.9758 177.552 19.4108 177.513 19.7128C177.39 20.652 176.37 24.3175 175.98 25.1709C175.517 26.1793 174.873 26.1018 173.872 26.2264C170.628 26.631 167.216 26.6559 163.958 27.0549C163.152 27.2183 163.306 28.4928 164.225 28.4208H175.247C176.175 28.9028 175.832 29.5706 174.842 29.6564C172.125 29.8919 166.798 29.8947 164.083 29.6564C162.188 29.4902 161.566 27.6505 162.723 26.2292L160.362 17.3301C159.897 16.6042 156.956 17.4215 157.748 15.8146C159.601 15.4793 161.667 15.7037 161.814 18.0089L161.82 18.0116Z" fill="#1F456B"/>
<path d="M168.259 16.2662C174.909 15.1496 174.767 25.0462 168.537 24.1402C164.108 23.4974 164.298 16.9311 168.259 16.2662ZM169.089 16.9533C165.056 17.1029 165.112 23.5057 169.329 23.3617C173.638 23.212 173.229 16.8009 169.089 16.9533Z" fill="#1F456B"/>
<path d="M167.882 15.5486V10.0019C168.381 9.60012 168.897 9.65553 169.062 10.3371C169.229 11.027 169.223 14.1688 169.128 14.9391C169.112 15.0859 169.134 15.2604 168.995 15.3519L167.882 15.5486Z" fill="#1F456B"/>
<path d="M173.078 30.0942C175.634 29.5124 175.47 33.5131 172.972 32.7429C171.818 32.3855 171.868 30.3713 173.078 30.0942Z" fill="#1F456B"/>
<path d="M164.069 32.4825C162.804 31.2385 164.538 29.2852 165.884 30.3352C167.556 31.6374 165.396 33.7874 164.069 32.4825Z" fill="#1F456B"/>
<path d="M183.553 13.6646C183.681 13.7948 183.717 14.0608 183.726 14.2436C183.692 14.5512 182.388 15.3352 182.106 15.3907C181.462 15.5209 181.164 14.7617 181.409 14.3434C181.574 14.0663 183.207 13.3183 183.55 13.6646H183.553Z" fill="#1F456B"/>
<path d="M155.44 14.3572C155.718 14.7174 155.429 15.4017 155.002 15.4101C154.835 15.4128 153.522 14.7396 153.377 14.5983C152.887 14.119 153.352 13.4429 153.884 13.4928C153.976 13.5011 155.378 14.2852 155.437 14.36L155.44 14.3572Z" fill="#1F456B"/>
<path d="M159.702 7.48615C160.803 6.93204 162.004 10.1404 160.538 9.77744C160.083 9.56133 158.982 7.7272 159.702 7.48615Z" fill="#1F456B"/>
<path d="M181.758 29.6758C182.215 29.5429 183.578 30.2937 183.731 30.8229C183.868 32.2636 180.233 30.6262 181.758 29.6758Z" fill="#1F456B"/>
<path d="M160.398 35.2918C162.04 34.7987 160.802 37.6745 159.963 37.6053C158.879 37.4945 159.989 35.4165 160.398 35.2918Z" fill="#1F456B"/>
<path d="M176.515 7.48615C177.033 7.3116 177.468 7.67455 177.39 8.20927C177.337 8.56391 176.579 9.83838 176.113 9.77466C174.957 9.61674 176.178 7.59974 176.518 7.48338L176.515 7.48615Z" fill="#1F456B"/>
<path d="M153.24 22.9101C152.965 23.1816 151.122 23.2619 150.955 22.7078C150.492 21.1535 154.367 21.8018 153.24 22.9101Z" fill="#1F456B"/>
<path d="M154.757 29.6758C155.339 29.5789 155.704 30.1302 155.412 30.6123C155.334 30.7397 154.015 31.4712 153.84 31.5072C153.444 31.5848 153.009 30.9891 153.204 30.6178C153.316 30.374 154.492 29.7202 154.76 29.6758H154.757Z" fill="#1F456B"/>
<path d="M175.971 35.2918C177.095 34.9594 178.04 37.9849 176.657 37.5776C176.214 37.2507 175.049 35.5634 175.971 35.2918Z" fill="#1F456B"/>
<path d="M168.95 7.56927C168.671 7.84633 168.039 7.79923 167.91 7.36979C167.843 7.1426 167.832 5.7102 167.905 5.50241C168.052 5.07574 168.827 5.07851 168.964 5.50241C169.056 5.78501 169.165 7.3587 168.953 7.56927H168.95Z" fill="#1F456B"/>
<path d="M168.105 37.3421H168.758C169.087 37.4501 169.05 39.1014 168.956 39.4173C168.897 39.6168 168.702 39.7747 168.493 39.7941C168.156 39.8107 167.947 39.6251 167.885 39.3037C167.824 38.9795 167.782 37.4474 168.108 37.3393L168.105 37.3421Z" fill="#1F456B"/>
<path d="M171.294 18.8705C171.372 18.9453 171.4 19.0728 171.411 19.1781C171.389 19.4274 169.1 21.7796 168.886 21.8351C168.445 21.9487 167.682 20.7019 167.183 20.5273C167.409 18.829 168.381 20.7351 168.886 20.6021L170.778 18.7625C170.937 18.6821 171.177 18.7625 171.291 18.8705H171.294Z" fill="#1F456B"/>
<path d="M5.83115 29.2325C4.23121 28.8086 3.09675 28.0107 2.42779 26.8388C1.75603 25.6668 1.3017 23.8077 1.06477 21.2615L0 9.58903L4.56011 7.55819C4.75802 7.48892 4.93362 7.45567 5.0925 7.45567C5.44649 7.45567 5.62488 7.5942 5.62488 7.86849C5.46601 13.8142 5.38796 17.0059 5.38796 17.4409L5.27089 23.0541C5.27089 24.1347 5.88132 24.8966 7.10497 25.3426C8.32862 25.7915 10.4219 26.0131 13.3821 26.0131V29.8698C9.94807 29.8698 7.43109 29.6592 5.83394 29.2325H5.83115Z" fill="#1F456B"/>
<path d="M28.3614 29.7645C29.4651 28.6396 30.778 27.7337 32.2999 27.0438C33.819 26.3539 35.3883 26.0103 37.0077 26.0103V29.867C34.6775 29.867 32.7542 30.3075 31.2351 31.1941C29.716 32.0779 28.9551 33.1973 28.9551 34.5521L26.7057 37.1343C26.5858 37.2728 26.4297 37.3061 26.2318 37.2368C23.8626 36.3419 21.8807 35.2558 20.2808 33.9813C18.6809 32.7069 17.5854 31.3354 16.9945 29.867H13.3821C12.4734 29.867 11.7041 29.6786 11.0742 29.299C10.4442 28.9195 10.1265 28.4679 10.1265 27.9387C10.1265 27.4095 10.4442 26.9579 11.0742 26.5783C11.7069 26.1987 12.4762 26.0103 13.3821 26.0103H16.5792C17.2509 22.8657 20.1498 19.8458 25.2841 16.9533C25.521 16.8147 25.758 16.7455 25.9949 16.7455C26.2318 16.7455 26.4102 16.8037 26.5273 16.9173C27.7119 18.0421 28.6094 19.2141 29.2226 20.4304C29.8331 21.6467 30.1397 22.8075 30.1397 23.9075C30.1397 25.6058 29.4178 26.944 27.9795 27.9193C26.5384 28.8945 24.4368 29.5096 21.6745 29.7617C22.6222 31.0473 24.1023 32.2303 26.1147 33.3081C26.5078 32.0696 27.2603 30.8866 28.3641 29.7617L28.3614 29.7645ZM20.4285 25.9106C23.8235 25.8192 26.2318 25.5421 27.6534 25.085C27.3774 24.3037 26.9036 23.5362 26.2318 22.7771C25.5601 22.0207 24.6514 21.1812 23.5086 20.2641C21.5741 22.1454 20.5484 24.0294 20.4285 25.9106Z" fill="#1F456B"/>
<path d="M34.7276 29.3184C34.0754 28.9527 33.7493 28.4928 33.7493 27.9415C33.7493 27.3901 34.0754 26.933 34.7276 26.5645C35.3799 26.196 36.138 26.0131 37.0077 26.0131C39.455 26.0131 41.3699 25.8136 42.7524 25.4119C44.135 25.0102 44.8234 24.4533 44.8234 23.7412C44.8234 22.2257 44.7064 20.1145 44.4694 17.4049C44.2325 14.6952 43.9371 12.0909 43.5803 9.58903L48.1404 7.55819C48.3383 7.48892 48.5139 7.45567 48.6728 7.45567C49.0268 7.45567 49.2052 7.5942 49.2052 7.86849C49.2052 12.8279 49.1243 16.4546 48.9682 18.7486C48.7313 21.7575 48.2268 24.046 47.4575 25.6169C46.6882 27.1906 45.4924 28.2905 43.8757 28.9222C42.2563 29.5539 39.9679 29.8698 37.0077 29.8698C36.1408 29.8698 35.3799 29.6869 34.7276 29.3184Z" fill="#1F456B"/>
<path d="M67.5879 20.314C68.7139 21.1064 69.5613 22.1398 70.1327 23.4143C70.7041 24.6888 70.9912 26.0491 70.9912 27.4954C70.9912 34.0146 67.0638 37.2756 59.2091 37.2756C57.8656 37.2756 56.4356 37.1842 54.9165 37.0013C53.3974 36.8184 52.6365 36.5525 52.6365 36.2089C52.6365 35.9568 53.1689 35.7268 54.2364 35.519C62.2891 33.9592 66.8882 31.9616 68.0338 29.529C66.3754 29.8504 64.7782 30.0111 63.2368 30.0111C60.8285 30.0111 58.9526 29.6315 57.6119 28.8751C56.2684 28.1188 55.5994 27.0632 55.5994 25.7084C55.5994 24.6999 55.9534 23.683 56.6642 22.6607C57.375 21.6384 58.3506 20.7961 59.5965 20.1311C60.8397 19.4662 62.172 19.1337 63.5936 19.1337C65.1322 19.1337 66.4646 19.5299 67.5906 20.3223L67.5879 20.314ZM60.3045 26.0131C61.3498 26.2209 62.7825 26.3234 64.597 26.3234C65.5447 26.3234 66.5705 26.2652 67.6771 26.1516C67.0861 25.1653 66.236 24.3258 65.1322 23.6387C64.0256 22.9488 62.9023 22.6053 61.7567 22.6053C60.887 22.6053 60.1094 22.8186 59.4181 23.2425C58.7268 23.6664 58.1638 24.2455 57.7318 24.9825C58.4035 25.4645 59.262 25.8081 60.3073 26.0159L60.3045 26.0131Z" fill="#1F456B"/>
<path d="M105.928 26.0131V29.8698C103.835 29.8698 102.09 29.6287 100.688 29.1467C99.2857 28.6646 98.0118 27.85 96.869 26.703C96.7101 27.0244 96.4342 27.3679 96.0412 27.7364C94.3046 28.4706 92.4093 29.0442 90.3578 29.457C88.3035 29.8698 86.2715 30.0776 84.259 30.0776C81.5358 30.0776 79.462 29.6814 78.0432 28.889C76.6245 28.0966 75.9109 27.1269 75.9109 25.9799C75.9109 25.6806 75.9611 25.2678 76.0586 24.7414C76.1562 24.2122 76.2649 23.744 76.3847 23.3284H78.1018C78.3777 23.3284 78.5645 23.3561 78.6648 23.4143C78.7624 23.4725 78.8125 23.5805 78.8125 23.7412C78.8125 24.6583 79.1665 25.3038 79.8773 25.6696C80.5881 26.0381 82.0096 26.2209 84.1392 26.2209C85.7586 26.2209 87.4338 26.1073 89.1731 25.8774C90.9097 25.6474 92.3005 25.3509 93.3486 24.9825C94.3938 24.6167 94.759 24.2372 94.444 23.8465L87.8714 15.5818L91.0685 12.9996C91.2246 12.886 91.3947 12.8279 91.573 12.8279C91.7514 12.8279 91.8601 12.886 91.8992 12.9996C95.2551 18.5325 97.2871 21.86 97.9979 22.9849C99.2996 25.0046 101.945 26.0159 105.931 26.0159L105.928 26.0131Z" fill="#1F456B"/>
<path d="M138.08 22.1897L137.963 22.464L136.009 24.8051C134.983 24.8051 133.868 24.9381 132.664 25.2013C131.46 25.4645 129.832 25.8857 127.778 26.4592C125.253 27.1491 123 27.7226 121.027 28.1797C119.054 28.6396 116.773 29.0358 114.187 29.3683C111.6 29.7008 108.849 29.867 105.928 29.867C105.061 29.867 104.3 29.6897 103.648 29.3323C102.996 28.9777 102.669 28.5122 102.669 27.9387C102.669 27.3652 102.957 26.9302 103.528 26.5617C104.099 26.1932 104.899 26.0103 105.925 26.0103C110.226 26.0103 114.106 25.7748 117.559 25.3038C121.013 24.8328 124.871 24.1845 129.135 23.3589C126.292 22.6025 123.884 22.0096 121.911 21.5857C119.937 21.1618 118.337 20.9485 117.114 20.9485C114.942 20.9485 112.534 21.7187 109.889 23.2564C109.808 23.3035 109.71 23.3256 109.593 23.3256L109.061 23.2564L107.581 22.9461C108.211 21.9126 109.15 20.9845 110.393 20.1561C111.636 19.3304 112.977 18.6821 114.418 18.2111C115.859 17.7401 117.211 17.5046 118.474 17.5046C119.736 17.5046 121.247 17.7235 123.003 18.1585C124.759 18.5962 126.919 19.203 129.487 19.9843C131.775 20.6492 133.492 21.1313 134.638 21.4306C135.783 21.7298 136.728 21.8794 137.481 21.8794C137.874 21.8794 138.072 21.9819 138.072 22.1897H138.08ZM115.904 36.256C115.015 35.7628 114.237 35.3777 113.565 35.1034C114.789 34.1864 116.191 33.3469 117.769 32.5905C118.359 32.8205 119.132 33.2111 120.076 33.7625C121.021 34.3138 121.715 34.771 122.15 35.1395C121.676 35.5052 121.016 35.9374 120.166 36.4306C119.316 36.9237 118.596 37.2978 118.005 37.5499C117.493 37.1814 116.793 36.7519 115.904 36.2588V36.256Z" fill="#1F456B"/>
</g>
<defs>
<clipPath id="clip0_154_81">
<rect width="194" height="45" fill="white"/>
</clipPath>
</defs>
</svg>
